<svg xmlns="http://www.w3.org/2000/svg" viewBox="0 0 128 128" role="img" aria-labelledby="title">
  <title id="title">Mobilica site icon</title>
  <rect width="128" height="128" rx="26" fill="#ffffff"/>
  <rect x="6" y="6" width="116" height="116" rx="22" fill="#f7fbff" stroke="#d8e4f3" stroke-width="4"/>
  <path d="M40 39 18 50v12l22 11v-11L28 56l12-6z" fill="#8b949e"/>
  <path d="M88 39v11l12 6-12 6v11l22-11V50z" fill="#8b949e"/>
  <path d="M46 73V38h4v7c2-6 5-9 8-9 4 0 7 3 9 9 2-6 5-9 9-9 3 0 6 2 7 6 2 4 3 10 3 17v14h-4V59c0-6-1-10-2-13-1-3-3-5-5-5s-4 2-5 5c-2 4-2 8-2 14v13h-4V59c0-6-1-10-2-13-1-3-3-5-5-5s-4 2-5 5c-2 4-2 8-2 14v13z" fill="#231f20"/>
</svg>
